{
	"asset":{
		"generator":"Khronos glTF Blender I/O v4.0.44",
		"version":"2.0"
	},
	"scene":0,
	"scenes":[
		{
			"name":"Scene",
			"nodes":[
				0
			]
		}
	],
	"nodes":[
		{
			"mesh":0,
			"name":"Hull",
			"rotation":[
				0,
				-1,
				0,
				6.397578431460715e-07
			],
			"translation":[
				0,
				0.9027819633483887,
				0
			]
		}
	],
	"materials":[
		{
			"doubleSided":true,
			"name":"Material_1.003",
			"pbrMetallicRoughness":{
				"baseColorFactor":[
					0.0766676589846611,
					0.03634954243898392,
					0.015449185855686665,
					1
				],
				"metallicFactor":0,
				"roughnessFactor":0.5
			}
		}
	],
	"meshes":[
		{
			"name":"Object_1.001",
			"primitives":[
				{
					"attributes":{
						"POSITION":0,
						"NORMAL":1,
						"TEXCOORD_0":2
					},
					"indices":3,
					"material":0
				}
			]
		}
	],
	"accessors":[
		{
			"bufferView":0,
			"componentType":5126,
			"count":8971,
			"max":[
				1.8463441133499146,
				1.1299301385879517,
				3.341002941131592
			],
			"min":[
				-1.8463441133499146,
				-0.5271498560905457,
				-3.090754270553589
			],
			"type":"VEC3"
		},
		{
			"bufferView":1,
			"componentType":5126,
			"count":8971,
			"type":"VEC3"
		},
		{
			"bufferView":2,
			"componentType":5126,
			"count":8971,
			"type":"VEC2"
		},
		{
			"bufferView":3,
			"componentType":5123,
			"count":11457,
			"type":"SCALAR"
		}
	],
	"bufferViews":[
		{
			"buffer":0,
			"byteLength":107652,
			"byteOffset":0,
			"target":34962
		},
		{
			"buffer":0,
			"byteLength":107652,
			"byteOffset":107652,
			"target":34962
		},
		{
			"buffer":0,
			"byteLength":71768,
			"byteOffset":215304,
			"target":34962
		},
		{
			"buffer":0,
			"byteLength":22914,
			"byteOffset":287072,
			"target":34963
		}
	],
	"buffers":[
		{
			"byteLength":309988,
			"uri":"hull_brown.bin"
		}
	]
}
