{
	"asset":{
		"generator":"Khronos glTF Blender I/O v4.0.44",
		"version":"2.0"
	},
	"scene":0,
	"scenes":[
		{
			"name":"Scene",
			"nodes":[
				0,
				1,
				2,
				3
			]
		}
	],
	"nodes":[
		{
			"mesh":0,
			"name":"Wheels_Right"
		},
		{
			"mesh":1,
			"name":"Wheels_Left"
		},
		{
			"mesh":2,
			"name":"Track_Right"
		},
		{
			"mesh":3,
			"name":"Track_Left"
		}
	],
	"materials":[
		{
			"doubleSided":true,
			"name":"Material_1.003",
			"pbrMetallicRoughness":{
				"baseColorFactor":[
					0.09421614557504654,
					0.10163304209709167,
					0.09931923449039459,
					1
				],
				"metallicFactor":0,
				"roughnessFactor":0.5
			}
		},
		{
			"doubleSided":true,
			"name":"Material_1",
			"pbrMetallicRoughness":{
				"baseColorFactor":[
					0.042244359850883484,
					0.042244359850883484,
					0.042244359850883484,
					1
				],
				"metallicFactor":0,
				"roughnessFactor":0.5
			}
		}
	],
	"meshes":[
		{
			"name":"Object_4",
			"primitives":[
				{
					"attributes":{
						"POSITION":0,
						"NORMAL":1,
						"TEXCOORD_0":2
					},
					"indices":3,
					"material":0
				}
			]
		},
		{
			"name":"Object_3",
			"primitives":[
				{
					"attributes":{
						"POSITION":4,
						"NORMAL":5,
						"TEXCOORD_0":6
					},
					"indices":7,
					"material":0
				}
			]
		},
		{
			"name":"Object_2",
			"primitives":[
				{
					"attributes":{
						"POSITION":8,
						"NORMAL":9,
						"TEXCOORD_0":10
					},
					"indices":11,
					"material":1
				}
			]
		},
		{
			"name":"Object_1",
			"primitives":[
				{
					"attributes":{
						"POSITION":12,
						"NORMAL":13,
						"TEXCOORD_0":14
					},
					"indices":15,
					"material":1
				}
			]
		}
	],
	"accessors":[
		{
			"bufferView":0,
			"componentType":5126,
			"count":2806,
			"max":[
				-0.9507893919944763,
				1.1353095769882202,
				2.898080348968506
			],
			"min":[
				-1.6001838445663452,
				0.061019547283649445,
				-2.8512468338012695
			],
			"type":"VEC3"
		},
		{
			"bufferView":1,
			"componentType":5126,
			"count":2806,
			"type":"VEC3"
		},
		{
			"bufferView":2,
			"componentType":5126,
			"count":2806,
			"type":"VEC2"
		},
		{
			"bufferView":3,
			"componentType":5123,
			"count":3924,
			"type":"SCALAR"
		},
		{
			"bufferView":4,
			"componentType":5126,
			"count":2802,
			"max":[
				1.6001838445663452,
				1.1353095769882202,
				2.898080348968506
			],
			"min":[
				0.9507893919944763,
				0.061019547283649445,
				-2.8512468338012695
			],
			"type":"VEC3"
		},
		{
			"bufferView":5,
			"componentType":5126,
			"count":2802,
			"type":"VEC3"
		},
		{
			"bufferView":6,
			"componentType":5126,
			"count":2802,
			"type":"VEC2"
		},
		{
			"bufferView":7,
			"componentType":5123,
			"count":3924,
			"type":"SCALAR"
		},
		{
			"bufferView":8,
			"componentType":5126,
			"count":880,
			"max":[
				-1.0619418621063232,
				1.1607884168624878,
				2.921661376953125
			],
			"min":[
				-1.7863221168518066,
				-5.007982053939486e-06,
				-2.9422810077667236
			],
			"type":"VEC3"
		},
		{
			"bufferView":9,
			"componentType":5126,
			"count":880,
			"type":"VEC3"
		},
		{
			"bufferView":10,
			"componentType":5126,
			"count":880,
			"type":"VEC2"
		},
		{
			"bufferView":11,
			"componentType":5123,
			"count":1104,
			"type":"SCALAR"
		},
		{
			"bufferView":12,
			"componentType":5126,
			"count":880,
			"max":[
				1.786321997642517,
				1.1607884168624878,
				2.921661376953125
			],
			"min":[
				1.0619418621063232,
				-5.007982053939486e-06,
				-2.9422810077667236
			],
			"type":"VEC3"
		},
		{
			"bufferView":13,
			"componentType":5126,
			"count":880,
			"type":"VEC3"
		},
		{
			"bufferView":14,
			"componentType":5126,
			"count":880,
			"type":"VEC2"
		},
		{
			"bufferView":15,
			"componentType":5123,
			"count":1104,
			"type":"SCALAR"
		}
	],
	"bufferViews":[
		{
			"buffer":0,
			"byteLength":33672,
			"byteOffset":0,
			"target":34962
		},
		{
			"buffer":0,
			"byteLength":33672,
			"byteOffset":33672,
			"target":34962
		},
		{
			"buffer":0,
			"byteLength":22448,
			"byteOffset":67344,
			"target":34962
		},
		{
			"buffer":0,
			"byteLength":7848,
			"byteOffset":89792,
			"target":34963
		},
		{
			"buffer":0,
			"byteLength":33624,
			"byteOffset":97640,
			"target":34962
		},
		{
			"buffer":0,
			"byteLength":33624,
			"byteOffset":131264,
			"target":34962
		},
		{
			"buffer":0,
			"byteLength":22416,
			"byteOffset":164888,
			"target":34962
		},
		{
			"buffer":0,
			"byteLength":7848,
			"byteOffset":187304,
			"target":34963
		},
		{
			"buffer":0,
			"byteLength":10560,
			"byteOffset":195152,
			"target":34962
		},
		{
			"buffer":0,
			"byteLength":10560,
			"byteOffset":205712,
			"target":34962
		},
		{
			"buffer":0,
			"byteLength":7040,
			"byteOffset":216272,
			"target":34962
		},
		{
			"buffer":0,
			"byteLength":2208,
			"byteOffset":223312,
			"target":34963
		},
		{
			"buffer":0,
			"byteLength":10560,
			"byteOffset":225520,
			"target":34962
		},
		{
			"buffer":0,
			"byteLength":10560,
			"byteOffset":236080,
			"target":34962
		},
		{
			"buffer":0,
			"byteLength":7040,
			"byteOffset":246640,
			"target":34962
		},
		{
			"buffer":0,
			"byteLength":2208,
			"byteOffset":253680,
			"target":34963
		}
	],
	"buffers":[
		{
			"byteLength":255888,
			"uri":"suspension_grey.bin"
		}
	]
}
