{
	"asset":{
		"generator":"Khronos glTF Blender I/O v4.0.44",
		"version":"2.0"
	},
	"scene":0,
	"scenes":[
		{
			"name":"Scene",
			"nodes":[
				0
			]
		}
	],
	"nodes":[
		{
			"mesh":0,
			"name":"Turret",
			"rotation":[
				0,
				-1,
				0,
				6.397578431460715e-07
			],
			"translation":[
				0,
				0.5462331771850586,
				-0.11440688371658325
			]
		}
	],
	"materials":[
		{
			"doubleSided":true,
			"name":"Material_1.003",
			"pbrMetallicRoughness":{
				"baseColorFactor":[
					0.07100590318441391,
					0.06938493251800537,
					0.06938493251800537,
					1
				],
				"metallicFactor":0,
				"roughnessFactor":0.5
			}
		}
	],
	"meshes":[
		{
			"name":"Object_1.002",
			"primitives":[
				{
					"attributes":{
						"POSITION":0,
						"NORMAL":1,
						"TEXCOORD_0":2
					},
					"indices":3,
					"material":0
				}
			]
		}
	],
	"accessors":[
		{
			"bufferView":0,
			"componentType":5126,
			"count":1873,
			"max":[
				1.1457072496414185,
				1.0934005975723267,
				1.5141983032226562
			],
			"min":[
				-1.190295934677124,
				0.0015577697195112705,
				-1.378160834312439
			],
			"type":"VEC3"
		},
		{
			"bufferView":1,
			"componentType":5126,
			"count":1873,
			"type":"VEC3"
		},
		{
			"bufferView":2,
			"componentType":5126,
			"count":1873,
			"type":"VEC2"
		},
		{
			"bufferView":3,
			"componentType":5123,
			"count":2841,
			"type":"SCALAR"
		}
	],
	"bufferViews":[
		{
			"buffer":0,
			"byteLength":22476,
			"byteOffset":0,
			"target":34962
		},
		{
			"buffer":0,
			"byteLength":22476,
			"byteOffset":22476,
			"target":34962
		},
		{
			"buffer":0,
			"byteLength":14984,
			"byteOffset":44952,
			"target":34962
		},
		{
			"buffer":0,
			"byteLength":5682,
			"byteOffset":59936,
			"target":34963
		}
	],
	"buffers":[
		{
			"byteLength":65620,
			"uri":"turret_grey.bin"
		}
	]
}
