{
	"asset":{
		"generator":"Khronos glTF Blender I/O v4.0.44",
		"version":"2.0"
	},
	"scene":0,
	"scenes":[
		{
			"name":"Scene",
			"nodes":[
				0
			]
		}
	],
	"nodes":[
		{
			"mesh":0,
			"name":"Gun",
			"translation":[
				0.11940769851207733,
				2.1954023838043213,
				1.0128839015960693
			]
		}
	],
	"materials":[
		{
			"doubleSided":true,
			"name":"Material_1.003",
			"pbrMetallicRoughness":{
				"baseColorFactor":[
					0.007703459355980158,
					0.1017795130610466,
					0.004933177027851343,
					1
				],
				"metallicFactor":0,
				"roughnessFactor":0.5
			}
		}
	],
	"meshes":[
		{
			"name":"Object_1.003",
			"primitives":[
				{
					"attributes":{
						"POSITION":0,
						"NORMAL":1,
						"TEXCOORD_0":2
					},
					"indices":3,
					"material":0
				}
			]
		}
	],
	"accessors":[
		{
			"bufferView":0,
			"componentType":5126,
			"count":1593,
			"max":[
				0.7362627983093262,
				0.2820146083831787,
				5.575237274169922
			],
			"min":[
				-0.854602038860321,
				-0.2796592712402344,
				0.1380787491798401
			],
			"type":"VEC3"
		},
		{
			"bufferView":1,
			"componentType":5126,
			"count":1593,
			"type":"VEC3"
		},
		{
			"bufferView":2,
			"componentType":5126,
			"count":1593,
			"type":"VEC2"
		},
		{
			"bufferView":3,
			"componentType":5123,
			"count":1974,
			"type":"SCALAR"
		}
	],
	"bufferViews":[
		{
			"buffer":0,
			"byteLength":19116,
			"byteOffset":0,
			"target":34962
		},
		{
			"buffer":0,
			"byteLength":19116,
			"byteOffset":19116,
			"target":34962
		},
		{
			"buffer":0,
			"byteLength":12744,
			"byteOffset":38232,
			"target":34962
		},
		{
			"buffer":0,
			"byteLength":3948,
			"byteOffset":50976,
			"target":34963
		}
	],
	"buffers":[
		{
			"byteLength":54924,
			"uri":"weaponry_green.bin"
		}
	]
}
