{
	"asset":{
		"generator":"Khronos glTF Blender I/O v4.0.44",
		"version":"2.0"
	},
	"scene":0,
	"scenes":[
		{
			"name":"Scene",
			"nodes":[
				0,
				1,
				2,
				3,
				4,
				5,
				6
			]
		}
	],
	"nodes":[
		{
			"mesh":0,
			"name":"Gun",
			"translation":[
				0.11940769851207733,
				2.1954023838043213,
				1.0128839015960693
			]
		},
		{
			"mesh":1,
			"name":"Turret",
			"rotation":[
				0,
				-1,
				0,
				6.397578431460715e-07
			],
			"translation":[
				0,
				1.7736496925354004,
				-0.11440688371658325
			]
		},
		{
			"mesh":2,
			"name":"Hull",
			"rotation":[
				0,
				-1,
				0,
				6.397578431460715e-07
			],
			"translation":[
				0,
				0.9027819633483887,
				0
			]
		},
		{
			"mesh":3,
			"name":"Wheels_Right"
		},
		{
			"mesh":4,
			"name":"Wheels_Left"
		},
		{
			"mesh":5,
			"name":"Track_Right"
		},
		{
			"mesh":6,
			"name":"Track_Left"
		}
	],
	"materials":[
		{
			"doubleSided":true,
			"name":"Material_1.003",
			"pbrMetallicRoughness":{
				"baseColorFactor":[
					0.09644734859466553,
					0.10173144936561584,
					0.09937158226966858,
					1
				],
				"metallicFactor":0,
				"roughnessFactor":0.5
			}
		},
		{
			"doubleSided":true,
			"name":"Material_1",
			"pbrMetallicRoughness":{
				"baseColorFactor":[
					0.042244359850883484,
					0.042244359850883484,
					0.042244359850883484,
					1
				],
				"metallicFactor":0,
				"roughnessFactor":0.5
			}
		}
	],
	"meshes":[
		{
			"name":"Object_1.003",
			"primitives":[
				{
					"attributes":{
						"POSITION":0,
						"NORMAL":1,
						"TEXCOORD_0":2
					},
					"indices":3,
					"material":0
				}
			]
		},
		{
			"name":"Object_1.002",
			"primitives":[
				{
					"attributes":{
						"POSITION":4,
						"NORMAL":5,
						"TEXCOORD_0":6
					},
					"indices":7,
					"material":0
				}
			]
		},
		{
			"name":"Object_1.001",
			"primitives":[
				{
					"attributes":{
						"POSITION":8,
						"NORMAL":9,
						"TEXCOORD_0":10
					},
					"indices":11,
					"material":0
				}
			]
		},
		{
			"name":"Object_4",
			"primitives":[
				{
					"attributes":{
						"POSITION":12,
						"NORMAL":13,
						"TEXCOORD_0":14
					},
					"indices":15,
					"material":0
				}
			]
		},
		{
			"name":"Object_3",
			"primitives":[
				{
					"attributes":{
						"POSITION":16,
						"NORMAL":17,
						"TEXCOORD_0":18
					},
					"indices":19,
					"material":0
				}
			]
		},
		{
			"name":"Object_2",
			"primitives":[
				{
					"attributes":{
						"POSITION":20,
						"NORMAL":21,
						"TEXCOORD_0":22
					},
					"indices":23,
					"material":1
				}
			]
		},
		{
			"name":"Object_1",
			"primitives":[
				{
					"attributes":{
						"POSITION":24,
						"NORMAL":25,
						"TEXCOORD_0":26
					},
					"indices":27,
					"material":1
				}
			]
		}
	],
	"accessors":[
		{
			"bufferView":0,
			"componentType":5126,
			"count":1593,
			"max":[
				0.7362627983093262,
				0.2820146083831787,
				5.575237274169922
			],
			"min":[
				-0.854602038860321,
				-0.2796592712402344,
				0.1380787491798401
			],
			"type":"VEC3"
		},
		{
			"bufferView":1,
			"componentType":5126,
			"count":1593,
			"type":"VEC3"
		},
		{
			"bufferView":2,
			"componentType":5126,
			"count":1593,
			"type":"VEC2"
		},
		{
			"bufferView":3,
			"componentType":5123,
			"count":1974,
			"type":"SCALAR"
		},
		{
			"bufferView":4,
			"componentType":5126,
			"count":1873,
			"max":[
				1.1457072496414185,
				1.0934005975723267,
				1.5141983032226562
			],
			"min":[
				-1.190295934677124,
				0.0015577697195112705,
				-1.378160834312439
			],
			"type":"VEC3"
		},
		{
			"bufferView":5,
			"componentType":5126,
			"count":1873,
			"type":"VEC3"
		},
		{
			"bufferView":6,
			"componentType":5126,
			"count":1873,
			"type":"VEC2"
		},
		{
			"bufferView":7,
			"componentType":5123,
			"count":2841,
			"type":"SCALAR"
		},
		{
			"bufferView":8,
			"componentType":5126,
			"count":8971,
			"max":[
				1.8463441133499146,
				1.1299301385879517,
				3.341002941131592
			],
			"min":[
				-1.8463441133499146,
				-0.5271498560905457,
				-3.090754270553589
			],
			"type":"VEC3"
		},
		{
			"bufferView":9,
			"componentType":5126,
			"count":8971,
			"type":"VEC3"
		},
		{
			"bufferView":10,
			"componentType":5126,
			"count":8971,
			"type":"VEC2"
		},
		{
			"bufferView":11,
			"componentType":5123,
			"count":11457,
			"type":"SCALAR"
		},
		{
			"bufferView":12,
			"componentType":5126,
			"count":2806,
			"max":[
				-0.9507893919944763,
				1.1353095769882202,
				2.898080348968506
			],
			"min":[
				-1.6001838445663452,
				0.061019547283649445,
				-2.8512468338012695
			],
			"type":"VEC3"
		},
		{
			"bufferView":13,
			"componentType":5126,
			"count":2806,
			"type":"VEC3"
		},
		{
			"bufferView":14,
			"componentType":5126,
			"count":2806,
			"type":"VEC2"
		},
		{
			"bufferView":15,
			"componentType":5123,
			"count":3924,
			"type":"SCALAR"
		},
		{
			"bufferView":16,
			"componentType":5126,
			"count":2802,
			"max":[
				1.6001838445663452,
				1.1353095769882202,
				2.898080348968506
			],
			"min":[
				0.9507893919944763,
				0.061019547283649445,
				-2.8512468338012695
			],
			"type":"VEC3"
		},
		{
			"bufferView":17,
			"componentType":5126,
			"count":2802,
			"type":"VEC3"
		},
		{
			"bufferView":18,
			"componentType":5126,
			"count":2802,
			"type":"VEC2"
		},
		{
			"bufferView":19,
			"componentType":5123,
			"count":3924,
			"type":"SCALAR"
		},
		{
			"bufferView":20,
			"componentType":5126,
			"count":880,
			"max":[
				-1.0619418621063232,
				1.1607884168624878,
				2.921661376953125
			],
			"min":[
				-1.7863221168518066,
				-5.007982053939486e-06,
				-2.9422810077667236
			],
			"type":"VEC3"
		},
		{
			"bufferView":21,
			"componentType":5126,
			"count":880,
			"type":"VEC3"
		},
		{
			"bufferView":22,
			"componentType":5126,
			"count":880,
			"type":"VEC2"
		},
		{
			"bufferView":23,
			"componentType":5123,
			"count":1104,
			"type":"SCALAR"
		},
		{
			"bufferView":24,
			"componentType":5126,
			"count":880,
			"max":[
				1.786321997642517,
				1.1607884168624878,
				2.921661376953125
			],
			"min":[
				1.0619418621063232,
				-5.007982053939486e-06,
				-2.9422810077667236
			],
			"type":"VEC3"
		},
		{
			"bufferView":25,
			"componentType":5126,
			"count":880,
			"type":"VEC3"
		},
		{
			"bufferView":26,
			"componentType":5126,
			"count":880,
			"type":"VEC2"
		},
		{
			"bufferView":27,
			"componentType":5123,
			"count":1104,
			"type":"SCALAR"
		}
	],
	"bufferViews":[
		{
			"buffer":0,
			"byteLength":19116,
			"byteOffset":0,
			"target":34962
		},
		{
			"buffer":0,
			"byteLength":19116,
			"byteOffset":19116,
			"target":34962
		},
		{
			"buffer":0,
			"byteLength":12744,
			"byteOffset":38232,
			"target":34962
		},
		{
			"buffer":0,
			"byteLength":3948,
			"byteOffset":50976,
			"target":34963
		},
		{
			"buffer":0,
			"byteLength":22476,
			"byteOffset":54924,
			"target":34962
		},
		{
			"buffer":0,
			"byteLength":22476,
			"byteOffset":77400,
			"target":34962
		},
		{
			"buffer":0,
			"byteLength":14984,
			"byteOffset":99876,
			"target":34962
		},
		{
			"buffer":0,
			"byteLength":5682,
			"byteOffset":114860,
			"target":34963
		},
		{
			"buffer":0,
			"byteLength":107652,
			"byteOffset":120544,
			"target":34962
		},
		{
			"buffer":0,
			"byteLength":107652,
			"byteOffset":228196,
			"target":34962
		},
		{
			"buffer":0,
			"byteLength":71768,
			"byteOffset":335848,
			"target":34962
		},
		{
			"buffer":0,
			"byteLength":22914,
			"byteOffset":407616,
			"target":34963
		},
		{
			"buffer":0,
			"byteLength":33672,
			"byteOffset":430532,
			"target":34962
		},
		{
			"buffer":0,
			"byteLength":33672,
			"byteOffset":464204,
			"target":34962
		},
		{
			"buffer":0,
			"byteLength":22448,
			"byteOffset":497876,
			"target":34962
		},
		{
			"buffer":0,
			"byteLength":7848,
			"byteOffset":520324,
			"target":34963
		},
		{
			"buffer":0,
			"byteLength":33624,
			"byteOffset":528172,
			"target":34962
		},
		{
			"buffer":0,
			"byteLength":33624,
			"byteOffset":561796,
			"target":34962
		},
		{
			"buffer":0,
			"byteLength":22416,
			"byteOffset":595420,
			"target":34962
		},
		{
			"buffer":0,
			"byteLength":7848,
			"byteOffset":617836,
			"target":34963
		},
		{
			"buffer":0,
			"byteLength":10560,
			"byteOffset":625684,
			"target":34962
		},
		{
			"buffer":0,
			"byteLength":10560,
			"byteOffset":636244,
			"target":34962
		},
		{
			"buffer":0,
			"byteLength":7040,
			"byteOffset":646804,
			"target":34962
		},
		{
			"buffer":0,
			"byteLength":2208,
			"byteOffset":653844,
			"target":34963
		},
		{
			"buffer":0,
			"byteLength":10560,
			"byteOffset":656052,
			"target":34962
		},
		{
			"buffer":0,
			"byteLength":10560,
			"byteOffset":666612,
			"target":34962
		},
		{
			"buffer":0,
			"byteLength":7040,
			"byteOffset":677172,
			"target":34962
		},
		{
			"buffer":0,
			"byteLength":2208,
			"byteOffset":684212,
			"target":34963
		}
	],
	"buffers":[
		{
			"byteLength":686420,
			"uri":"tiger_grey.bin"
		}
	]
}
